# xmcd
#
# Track frame offsets: 
#        150
#        16462
#        28612
#        41797
#        58072
#        77300
#        98557
#        115062
#        130305
#        149522
#        167195
#        183002
#        198157
#        213250
#
# Disc length: 3036 seconds
#
# Revision: 1
# Processed by: cddbd v1.5.1PL0 Copyright (c) Steve Scherf et al.
# Submitted via: ExactAudioCopy v0.95a5
#
DISCID=b70bda0e
DTITLE=Soundtrack - Rhinestone
DYEAR=1900
DGENRE=Soundtrack
TTITLE0=Tennessee Homsick Blues (Dolly Parton)
TTITLE1=Too Much Water (Randy Parton)
TTITLE2=The Day My Baby Died (Rusty Buchanan)
TTITLE3=One Emotion After Another (Dolly Parton)
TTITLE4=Goin' Back To Heaven (Stella Parton And Kin Vassy)
TTITLE5=What A Heartache (Dolly Parton)
TTITLE6=Stay Out Of My Bedroom (Sylvester Stallone With Dolly Parton)
TTITLE7=Woke Up In Love (Dolly Parton And Sylvester Stallone)
TTITLE8=God Won't Get You (Dolly Parton)
TTITLE9=Drinkinstein (Sylvester Stallone)
TTITLE10=Sweet Lovin' Friends (Dolly Parton And Sylvester Stallone)
TTITLE11=Waltz Me To Heaven (Floyd Parton)
TTITLE12=Butterflies (Dolly Parton)
TTITLE13=Be There (Dolly Parton And Sylvester Stallone)
EXTD=1984\n
EXTT0=
EXTT1=
EXTT2=
EXTT3=
EXTT4=
EXTT5=
EXTT6=
EXTT7=
EXTT8=
EXTT9=
EXTT10=
EXTT11=
EXTT12=
EXTT13=
PLAYORDER=
